<?xml version="1.0" encoding="UTF-8" standalone="no"?>
<!DOCTYPE svg PUBLIC "-//W3C//DTD SVG 1.1//EN" "http://www.w3.org/Graphics/SVG/1.1/DTD/svg11.dtd">
<svg width="100%" height="100%" viewBox="0 0 40 40" version="1.1" xmlns="http://www.w3.org/2000/svg" xmlns:xlink="http://www.w3.org/1999/xlink" xml:space="preserve" xmlns:serif="http://www.serif.com/" style="fill-rule:evenodd;clip-rule:evenodd;stroke-linejoin:round;stroke-miterlimit:2;">
    <g transform="matrix(1,0,0,1,-8057,-903)">
        <g transform="matrix(0.727184,0,0,0.727184,2203.48,252.01)">
            <rect x="8049.57" y="895.22" width="55.007" height="55.007" style="fill:none;"/>
        </g>
        <g transform="matrix(3.96746,0,0,3.96746,8059,938.429)">
            <path d="M0,-7.17L0,-4.091L3.727,-4.091L3.727,-7.696L0,-7.17ZM0,-0.608L0,-3.646L3.727,-3.646L3.727,-0.081L0,-0.608ZM4.132,-0.041L4.132,-3.646L9.074,-3.646L9.074,0.648L4.132,-0.041ZM4.132,-7.737L9.074,-8.426L9.074,-4.091L4.132,-4.091L4.132,-7.737Z" style="fill:white;fill-rule:nonzero;"/>
        </g>
    </g>
</svg>
